<svg width="25" height="24" viewBox="0 0 25 24" fill="none" xmlns="http://www.w3.org/2000/svg">
<path d="M18.3335 5V3C18.3335 1.9 17.4335 1 16.3335 1H12.3335C11.2335 1 10.3335 1.9 10.3335 3V5H7.3335C6.2335 5 5.3335 5.9 5.3335 7V16C5.3335 17.1 6.2335 18 7.3335 18H21.3335C22.4335 18 23.3335 17.1 23.3335 16V7C23.3335 5.9 22.4335 5 21.3335 5H18.3335ZM16.3335 5H12.3335V3H16.3335V5ZM2.3335 9C1.7835 9 1.3335 9.45 1.3335 10V20C1.3335 21.1 2.2335 22 3.3335 22H18.3335C18.8835 22 19.3335 21.55 19.3335 21C19.3335 20.45 18.8835 20 18.3335 20H3.3335V10C3.3335 9.45 2.8835 9 2.3335 9Z" fill="#86888C"/>
</svg>
